<svg width="16" height="16" viewBox="0 0 16 16" fill="none" xmlns="http://www.w3.org/2000/svg">
<path d="M12.9257 16C12.2973 16 11.7297 15.8476 11.2227 15.5429C10.7157 15.2382 10.317 14.8203 10.0267 14.2892C9.74066 13.7537 9.59766 13.1573 9.59766 12.5C9.59766 11.8427 9.74066 11.2484 10.0267 10.7174C10.317 10.1819 10.7157 9.76182 11.2227 9.45709C11.7297 9.15236 12.2973 9 12.9257 9C13.4587 9 13.9375 9.09142 14.3622 9.27425C14.7868 9.45274 15.14 9.72264 15.4217 10.084C15.7033 10.4409 15.8962 10.8806 16.0002 11.403H14.9602C14.8648 11.0808 14.7153 10.8109 14.5117 10.5933C14.308 10.3756 14.0697 10.2146 13.7967 10.1101C13.5237 10.0012 13.2333 9.94683 12.9257 9.94683C12.4967 9.94683 12.111 10.0557 11.7687 10.2733C11.4307 10.491 11.1663 10.7935 10.9757 11.181C10.785 11.5684 10.6897 12.0081 10.6897 12.5C10.6897 12.9876 10.785 13.4251 10.9757 13.8125C11.1663 14.1999 11.4307 14.5047 11.7687 14.7267C12.111 14.9443 12.4967 15.0532 12.9257 15.0532C13.2333 15.0532 13.5237 15.0009 13.7967 14.8965C14.0697 14.7876 14.308 14.6244 14.5117 14.4067C14.7153 14.1891 14.8648 13.9192 14.9602 13.597H16.0002C15.9005 14.102 15.7055 14.5351 15.4152 14.8965C15.1248 15.2578 14.7652 15.532 14.3362 15.7192C13.9072 15.9064 13.437 16 12.9257 16Z" fill="#3574F0"/>
<path d="M11 5H5V11H8.82435C8.90786 10.7396 9.01489 10.4871 9.1462 10.2432L9.14757 10.2407C9.5204 9.55308 10.0427 8.99957 10.7075 8.59999C10.8035 8.5423 10.901 8.48885 11 8.43961V5Z" fill="#EBECF0"/>
<path d="M5 2.5C5 2.22386 4.77614 2 4.5 2C4.22386 2 4 2.22386 4 2.5V4H2.5C2.22386 4 2 4.22386 2 4.5C2 4.77614 2.22386 5 2.5 5H4V11H2.5C2.22386 11 2 11.2239 2 11.5C2 11.7761 2.22386 12 2.5 12H4V13.5C4 13.7761 4.22386 14 4.5 14C4.77614 14 5 13.7761 5 13.5V12H8.62104C8.65376 11.656 8.72106 11.322 8.82435 11H5V5H11V8.43961C11.3189 8.28095 11.6531 8.16598 12 8.0935V5H13.5C13.7761 5 14 4.77614 14 4.5C14 4.22386 13.7761 4 13.5 4H12V2.5C12 2.22386 11.7761 2 11.5 2C11.2239 2 11 2.22386 11 2.5V4H5V2.5Z" fill="#6C707E"/>
</svg>
