<svg width="16" height="16" viewBox="0 0 16 16" fill="none" xmlns="http://www.w3.org/2000/svg">
<path d="M13 13H16V15C16 15.5523 15.5523 16 15 16H13V13Z" fill="#548AF7"/>
<path d="M9 13H12V16H10C9.44772 16 9 15.5523 9 15V13Z" fill="#548AF7"/>
<path d="M9 10C9 9.44772 9.44772 9 10 9H12V12H9V10Z" fill="#548AF7"/>
<path d="M13 9H15C15.5523 9 16 9.44772 16 10V12H13V9Z" fill="#548AF7"/>
<path d="M11 5H5V11H8V10C8 8.89543 8.89543 8 10 8H11V5Z" fill="#43454A"/>
<path d="M5 2.5C5 2.22386 4.77614 2 4.5 2C4.22386 2 4 2.22386 4 2.5V4H2.5C2.22386 4 2 4.22386 2 4.5C2 4.77614 2.22386 5 2.5 5H4V11H2.5C2.22386 11 2 11.2239 2 11.5C2 11.7761 2.22386 12 2.5 12H4V13.5C4 13.7761 4.22386 14 4.5 14C4.77614 14 5 13.7761 5 13.5V12H8V11H5V5H11V8H12V5H13.5C13.7761 5 14 4.77614 14 4.5C14 4.22386 13.7761 4 13.5 4H12V2.5C12 2.22386 11.7761 2 11.5 2C11.2239 2 11 2.22386 11 2.5V4H5V2.5Z" fill="#CED0D6"/>
</svg>
