<svg width="16" height="16" viewBox="0 0 16 16" fill="none" xmlns="http://www.w3.org/2000/svg">
<path d="M11 5H5V11H8V10C8 8.89543 8.89543 8 10 8H11V5Z" fill="#EBECF0"/>
<path d="M5 2.5C5 2.22386 4.77614 2 4.5 2C4.22386 2 4 2.22386 4 2.5V4H2.5C2.22386 4 2 4.22386 2 4.5C2 4.77614 2.22386 5 2.5 5H4V11H2.5C2.22386 11 2 11.2239 2 11.5C2 11.7761 2.22386 12 2.5 12H4V13.5C4 13.7761 4.22386 14 4.5 14C4.77614 14 5 13.7761 5 13.5V12H8V11H5V5H11V8H12V5H13.5C13.7761 5 14 4.77614 14 4.5C14 4.22386 13.7761 4 13.5 4H12V2.5C12 2.22386 11.7761 2 11.5 2C11.2239 2 11 2.22386 11 2.5V4H5V2.5Z" fill="#6C707E"/>
<path fill-rule="evenodd" clip-rule="evenodd" d="M10 9C9.44772 9 9 9.44772 9 10V15C9 15.5523 9.44772 16 10 16H15C15.5523 16 16 15.5523 16 15V10C16 9.44772 15.5523 9 15 9H10ZM14 11H11V14H14V11Z" fill="#FFFAEB"/>
<path fill-rule="evenodd" clip-rule="evenodd" d="M14 11H11V14H14V11ZM12 13V12H13V13H12Z" fill="#C27D04"/>
<path fill-rule="evenodd" clip-rule="evenodd" d="M9 10C9 9.44772 9.44772 9 10 9H15C15.5523 9 16 9.44772 16 10V15C16 15.5523 15.5523 16 15 16H10C9.44772 16 9 15.5523 9 15V10ZM10 10H15V15H10L10 10Z" fill="#C27D04"/>
</svg>
