<svg width="16" height="16" viewBox="0 0 16 16" fill="none" xmlns="http://www.w3.org/2000/svg">
<path d="M12.8706 9C12.0268 9 11.3632 9.37098 10.9825 9.99832V9.12281H10V16H11.0029V13.5203C11.3867 14.1272 12.0417 14.4854 12.8706 14.4854C14.3289 14.4854 15.3472 13.3699 15.3472 11.7427C15.3472 10.1155 14.3289 9 12.8706 9ZM12.6608 13.5848C11.6835 13.5848 11.0029 12.8326 11.0029 11.7427C11.0029 10.6528 11.6835 9.90058 12.6608 9.90058C13.633 9.90058 14.3034 10.6528 14.3034 11.7427C14.3034 12.8326 13.633 13.5848 12.6608 13.5848Z" fill="#834DF0"/>
<path d="M11 5H5V11H9V8H11V5Z" fill="#EBECF0"/>
<path d="M5 2.5C5 2.22386 4.77614 2 4.5 2C4.22386 2 4 2.22386 4 2.5V4H2.5C2.22386 4 2 4.22386 2 4.5C2 4.77614 2.22386 5 2.5 5H4V11H2.5C2.22386 11 2 11.2239 2 11.5C2 11.7761 2.22386 12 2.5 12H4V13.5C4 13.7761 4.22386 14 4.5 14C4.77614 14 5 13.7761 5 13.5V12H9V11H5V5H11V8H12V5H13.5C13.7761 5 14 4.77614 14 4.5C14 4.22386 13.7761 4 13.5 4H12V2.5C12 2.22386 11.7761 2 11.5 2C11.2239 2 11 2.22386 11 2.5V4H5V2.5Z" fill="#6C707E"/>
</svg>
