<svg width="16" height="16" viewBox="0 0 16 16" fill="none" xmlns="http://www.w3.org/2000/svg">
<path fill-rule="evenodd" clip-rule="evenodd" d="M2.5 4C2.22386 4 2 4.22386 2 4.5C2 4.77614 2.22386 5 2.5 5H4V11H2.5C2.22386 11 2 11.2239 2 11.5C2 11.7761 2.22386 12 2.5 12H4V13.5C4 13.7761 4.22386 14 4.5 14C4.77614 14 5 13.7761 5 13.5V12H11V13.5C11 13.7761 11.2239 14 11.5 14C11.7761 14 12 13.7761 12 13.5V6C12 4.89543 11.1046 4 10 4H2.5ZM5 11V5H10C10.5523 5 11 5.44772 11 6V11H5Z" fill="#CED0D6"/>
<path d="M4.5 2.5H12C12.8284 2.5 13.5 3.17157 13.5 4V11.5" stroke="#CED0D6" stroke-linecap="round" stroke-linejoin="round"/>
<path d="M5 5H10C10.5523 5 11 5.44772 11 6V11H5V5Z" fill="#43454A"/>
</svg>
