<svg width="16" height="16" viewBox="0 0 16 16" fill="none" xmlns="http://www.w3.org/2000/svg">
<path d="M3 1C3 0.447715 3.44772 0 4 0H7C7.55228 0 8 0.447715 8 1V5H4C3.44772 5 3 4.55228 3 4V1Z" fill="#4682FA"/>
<path d="M5 5C5 4.44772 5.44772 4 6 4H10V8C10 8.55228 9.55228 9 9 9H6C5.44772 9 5 8.55228 5 8V5Z" fill="#834DF0"/>
<path d="M8 2C8 1.44772 8.44772 1 9 1H12C12.5523 1 13 1.44772 13 2V5C13 5.55228 12.5523 6 12 6H9C8.44772 6 8 5.55228 8 5V2Z" fill="#FFAF0F"/>
<path fill-rule="evenodd" clip-rule="evenodd" d="M2 10H4C5.10457 10 6 10.8954 6 12V13C6 14.1046 5.10457 15 4 15H2V10ZM3 11V14H4C4.55228 14 5 13.5523 5 13V12C5 11.4477 4.55228 11 4 11H3Z" fill="#6C707E"/>
<path fill-rule="evenodd" clip-rule="evenodd" d="M12 10H13V14H15V15H12V10Z" fill="#6C707E"/>
<path fill-rule="evenodd" clip-rule="evenodd" d="M8.5 11C8.22386 11 8 11.2239 8 11.5C8 11.7761 8.22386 12 8.5 12H9C9.82843 12 10.5 12.6716 10.5 13.5C10.5 14.3284 9.82843 15 9 15H7.25V14H9C9.27614 14 9.5 13.7761 9.5 13.5C9.5 13.2239 9.27614 13 9 13H8.5C7.67157 13 7 12.3284 7 11.5C7 10.6716 7.67157 10 8.5 10H10.25V11H8.5Z" fill="#6C707E"/>
</svg>
