<svg width="16" height="16" viewBox="0 0 16 16" fill="none" xmlns="http://www.w3.org/2000/svg">
<path d="M3 1C3 0.447715 3.44772 0 4 0H7C7.55228 0 8 0.447715 8 1V5H4C3.44772 5 3 4.55228 3 4V1Z" fill="#4682FA"/>
<path d="M5 5C5 4.44772 5.44772 4 6 4H10V8C10 8.55228 9.55228 9 9 9H6C5.44772 9 5 8.55228 5 8V5Z" fill="#834DF0"/>
<path d="M8 2C8 1.44772 8.44772 1 9 1H12C12.5523 1 13 1.44772 13 2V5C13 5.55228 12.5523 6 12 6H9C8.44772 6 8 5.55228 8 5V2Z" fill="#FFAF0F"/>
<path d="M2.5 10.5V14.5H4C4.82843 14.5 5.5 13.8284 5.5 13V12C5.5 11.1716 4.82843 10.5 4 10.5H2.5Z" stroke="#6C707E"/>
<path d="M7.5 10V14.5H10" stroke="#6C707E"/>
<path d="M11 14.5H12.75C13.3023 14.5 13.75 14.0523 13.75 13.5V13.5C13.75 12.9477 13.3023 12.5 12.75 12.5H12.25C11.6977 12.5 11.25 12.0523 11.25 11.5V11.5C11.25 10.9477 11.6977 10.5 12.25 10.5H14" stroke="#6C707E" stroke-linejoin="round"/>
</svg>
