<svg width="16" height="16" viewBox="0 0 16 16" fill="none" xmlns="http://www.w3.org/2000/svg">
<path fill-rule="evenodd" clip-rule="evenodd" d="M12.5 9C12.7761 9 13 9.22386 13 9.5V12H15.5C15.7761 12 16 12.2239 16 12.5C16 12.7761 15.7761 13 15.5 13H13V15.5C13 15.7761 12.7761 16 12.5 16C12.2239 16 12 15.7761 12 15.5V13H9.5C9.22386 13 9 12.7761 9 12.5C9 12.2239 9.22386 12 9.5 12H12V9.5C12 9.22386 12.2239 9 12.5 9Z" fill="#3574F0"/>
<path fill-rule="evenodd" clip-rule="evenodd" d="M5 5.94999C6.14112 5.71836 7 4.70948 7 3.5C7 2.11929 5.88071 1 4.5 1C3.11929 1 2 2.11929 2 3.5C2 4.70948 2.85888 5.71836 4 5.94999L4 14.5C4 14.7761 4.22386 15 4.5 15C4.77614 15 5 14.7761 5 14.5L5 12H8.08535C8.29127 11.4174 8.84689 11 9.5 11H10.5002C10.814 10.5822 11 10.0628 11 9.5V8.94999C12.1411 8.71836 13 7.70948 13 6.5C13 5.11929 11.8807 4 10.5 4C9.11929 4 8 5.11929 8 6.5C8 7.70948 8.85888 8.71836 10 8.94999V9.5C10 10.3284 9.32843 11 8.5 11H5L5 5.94999ZM4.5 5C5.32843 5 6 4.32843 6 3.5C6 2.67157 5.32843 2 4.5 2C3.67157 2 3 2.67157 3 3.5C3 4.32843 3.67157 5 4.5 5ZM10.5 8C11.3284 8 12 7.32843 12 6.5C12 5.67157 11.3284 5 10.5 5C9.67157 5 9 5.67157 9 6.5C9 7.32843 9.67157 8 10.5 8Z" fill="#6C707E"/>
</svg>
