<svg width="16" height="16" viewBox="0 0 16 16" fill="none" xmlns="http://www.w3.org/2000/svg">
<path d="M3.5 13.5H2.5C1.94772 13.5 1.5 13.0523 1.5 12.5V3.5C1.5 2.94771 1.94772 2.5 2.5 2.5H3.5" stroke="#6C707E" stroke-linecap="round"/>
<path d="M12.5 13.5H13.5C14.0523 13.5 14.5 13.0523 14.5 12.5V3.5C14.5 2.94771 14.0523 2.5 13.5 2.5H12.5" stroke="#6C707E" stroke-linecap="round"/>
<path d="M7.03553 4.39949C7.56819 3.86684 8.43181 3.86684 8.96447 4.39949L11.6005 7.03553C12.1332 7.56819 12.1332 8.43181 11.6005 8.96447L8.96447 11.6005C8.43181 12.1332 7.56819 12.1332 7.03553 11.6005L4.39949 8.96447C3.86684 8.43181 3.86684 7.56819 4.39949 7.03553L7.03553 4.39949Z" fill="#FAF5FF" stroke="#834DF0"/>
</svg>
