<svg width="16" height="16" viewBox="0 0 16 16" fill="none" xmlns="http://www.w3.org/2000/svg">
<path fill-rule="evenodd" clip-rule="evenodd" d="M10.1464 10.1464C10.3417 9.95118 10.6583 9.95118 10.8536 10.1464L15 14.2929V11.5C15 11.2239 15.2239 11 15.5 11C15.7761 11 16 11.2239 16 11.5V15.5C16 15.7761 15.7761 16 15.5 16H11.5C11.2239 16 11 15.7761 11 15.5C11 15.2239 11.2239 15 11.5 15H14.2929L10.1464 10.8536C9.95118 10.6583 9.95118 10.3417 10.1464 10.1464Z" fill="#CED0D6"/>
<path d="M1 3.86667C1 2.83574 1.73127 2 2.63333 2H6.1217C6.39413 2 6.65477 2.11115 6.84336 2.30775L8.46667 4L13 4C14.1046 4 15 4.89543 15 6V10.0854C14.4174 10.2913 14 10.8469 14 11.5V11.8787L11.5607 9.43934C10.9749 8.85355 10.0251 8.85355 9.43934 9.43934C8.85355 10.0251 8.85355 10.9749 9.43934 11.5607L11.8787 14H2.63333C1.73127 14 1 13.1643 1 12.1333V3.86667Z" fill="#25324D"/>
<path d="M2.63333 3L6.1217 3L8.04022 5H13C13.5523 5 14 5.44771 14 6V11.5C14 10.8469 14.4174 10.2913 15 10.0854V6C15 4.89543 14.1046 4 13 4L8.46667 4L6.84336 2.30775C6.65477 2.11115 6.39413 2 6.1217 2H2.63333C1.73127 2 1 2.83574 1 3.86667V12.1333C1 13.1643 1.73127 14 2.63333 14H11.8787L10.8787 13H2.63333C2.40481 13 2 12.7416 2 12.1333V3.86667C2 3.25841 2.40481 3 2.63333 3Z" fill="#548AF7"/>
</svg>
