<svg width="16" height="16" viewBox="0 0 16 16" fill="none" xmlns="http://www.w3.org/2000/svg">
<path d="M6 14H10C10 14.5523 9.55228 15 9 15H7C6.44772 15 6 14.5523 6 14Z" fill="#CED0D6"/>
<path fill-rule="evenodd" clip-rule="evenodd" d="M12.1464 8.14645C12.3417 7.95118 12.6583 7.95118 12.8536 8.14645L15.8536 11.1464C16.0488 11.3417 16.0488 11.6583 15.8536 11.8536C15.6583 12.0488 15.3417 12.0488 15.1464 11.8536L13 9.70711V15.5C13 15.7761 12.7761 16 12.5 16C12.2239 16 12 15.7761 12 15.5V9.70711L9.85355 11.8536C9.65829 12.0488 9.34171 12.0488 9.14645 11.8536C8.95118 11.6583 8.95118 11.3417 9.14645 11.1464L12.1464 8.14645Z" fill="#CED0D6"/>
<path d="M8.08542 12H5.70117V13H9.5C9.11612 13 8.73223 12.8536 8.43934 12.5607C8.27559 12.3969 8.15762 12.2047 8.08542 12Z" fill="#CED0D6"/>
<path d="M8.08542 11C8.15762 10.7953 8.2756 10.6031 8.43934 10.4393L11.4393 7.43934C11.7298 7.14888 12.1098 7.00244 12.4904 7.00003C12.6906 6.47159 12.8002 5.89859 12.8002 5.3C12.8002 2.64903 10.6512 0.5 8.0002 0.5C5.34923 0.5 3.2002 2.64903 3.2002 5.3C3.2002 6.87464 3.95842 8.27218 5.12968 9.14746L5.50018 11H8.08542Z" fill="#57965C"/>
</svg>
