<svg width="16" height="16" viewBox="0 0 16 16" fill="none" xmlns="http://www.w3.org/2000/svg">
<circle cx="2" cy="13" r="1.5" fill="#FFF7F7" stroke="#DB3B4B"/>
<circle cx="2" cy="8" r="1.5" fill="#FFFAEB" stroke="#C27D04"/>
<circle cx="2" cy="3" r="1.5" fill="#F2FCF3" stroke="#208A3C"/>
<path d="M4.94686 3.56659C4.98193 3.38311 5.00029 3.1937 5.00029 3C5.00029 2.80836 4.98232 2.62091 4.94797 2.43926C5.57414 2.15705 6.26887 2 7.00029 2C9.76171 2 12.0003 4.23858 12.0003 7C12.0003 8.20053 11.5772 9.30225 10.8719 10.1642L13.8528 13.1414C14.0482 13.3365 14.0484 13.6531 13.8533 13.8485C13.6581 14.0439 13.3416 14.0441 13.1462 13.8489L10.1649 10.8713C9.3029 11.5767 8.20102 12 7.00029 12C6.08503 12 5.22722 11.7541 4.48931 11.3247C4.26932 10.9985 3.9869 10.7179 3.65918 10.5C3.89435 10.3436 4.10619 10.155 4.28838 9.94036C5.00123 10.5982 5.95383 11 7.00029 11C9.20942 11 11.0003 9.20914 11.0003 7C11.0003 4.79086 9.20942 3 7.00029 3C6.24955 3 5.54712 3.20682 4.94686 3.56659Z" fill="#6C707E"/>
</svg>
