<svg width="16" height="16" viewBox="0 0 16 16" fill="none" xmlns="http://www.w3.org/2000/svg">
<circle cx="12" cy="12" r="2" fill="#EDF3FF"/>
<path fill-rule="evenodd" clip-rule="evenodd" d="M13.7383 14.4454C13.2479 14.7946 12.6479 15 12 15C10.3431 15 9 13.6569 9 12C9 10.3431 10.3431 9 12 9C13.6569 9 15 10.3431 15 12C15 12.6479 14.7946 13.2479 14.4454 13.7383L15.8536 15.1464C16.0488 15.3417 16.0488 15.6583 15.8536 15.8536C15.6583 16.0488 15.3417 16.0488 15.1464 15.8536L13.7383 14.4454ZM14 12C14 13.1046 13.1046 14 12 14C10.8954 14 10 13.1046 10 12C10 10.8954 10.8954 10 12 10C13.1046 10 14 10.8954 14 12Z" fill="#3574F0"/>
<path d="M11 5H5V11H8.12602C8.4878 9.59439 9.59439 8.4878 11 8.12602V5Z" fill="#EBECF0"/>
<path d="M5 2.5C5 2.22386 4.77614 2 4.5 2C4.22386 2 4 2.22386 4 2.5V4H2.5C2.22386 4 2 4.22386 2 4.5C2 4.77614 2.22386 5 2.5 5H4V11H2.5C2.22386 11 2 11.2239 2 11.5C2 11.7761 2.22386 12 2.5 12H4V13.5C4 13.7761 4.22386 14 4.5 14C4.77614 14 5 13.7761 5 13.5V12H8C8 11.6547 8.04375 11.3196 8.12602 11H5V5H11V8.12602C11.3196 8.04375 11.6547 8 12 8V5H13.5C13.7761 5 14 4.77614 14 4.5C14 4.22386 13.7761 4 13.5 4H12V2.5C12 2.22386 11.7761 2 11.5 2C11.2239 2 11 2.22386 11 2.5V4H5V2.5Z" fill="#6C707E"/>
</svg>
