<svg width="16" height="16" viewBox="0 0 16 16" fill="none" xmlns="http://www.w3.org/2000/svg">
<g clip-path="url(#clip0_9867_14376)">
<g clip-path="url(#clip1_9867_14376)">
<path fill-rule="evenodd" clip-rule="evenodd" d="M15.827 11.1757C16.0613 11.4101 16.0613 11.7899 15.827 12.0243L12.0301 15.8211C11.7958 16.0555 11.4159 16.0555 11.1816 15.8211L9.17574 13.8153C8.94142 13.581 8.94142 13.2011 9.17574 12.9668C9.41005 12.7324 9.78995 12.7324 10.0243 12.9668L11.6059 14.5483L14.9785 11.1757C15.2128 10.9414 15.5927 10.9414 15.827 11.1757Z" fill="#CED0D6"/>
<path d="M15.086 8.08557C15.086 8.59749 14.8907 9.10942 14.5002 9.5L11.18 12.7082L10.7314 12.2596C10.1065 11.6348 9.09347 11.6348 8.46863 12.2596C7.84379 12.8845 7.84379 13.8975 8.46863 14.5224L8.78601 14.8398C8.53563 14.9466 8.26789 15 8.00015 15C7.48833 15 6.97651 14.8047 6.58601 14.4142L1.58575 9.41367C1.19538 9.02328 1.00013 8.51166 1 8C0.999872 7.48796 1.19516 6.97588 1.58585 6.58522L6.58596 1.58572C6.97649 1.19523 7.48833 0.999989 8.00015 1C8.512 1.00001 9.02385 1.19529 9.41436 1.58582L14.5002 6.6716C14.8907 7.06207 15.0859 7.57381 15.086 8.08557Z" fill="#2F2936"/>
<path d="M10.4424 12.0303L13.7981 8.78783C13.9902 8.59303 14.086 8.34096 14.086 8.08567C14.0859 7.82826 13.9885 7.57414 13.7931 7.37871L8.70726 2.29294C8.51181 2.09747 8.25761 2.00001 8.00013 2C7.74267 1.99999 7.4885 2.09742 7.29304 2.29286L2.29292 7.29236C2.09739 7.48788 1.99994 7.74218 2 7.99975C2.00006 8.25712 2.09749 8.51119 2.29287 8.70658L7.29314 13.7071C7.48858 13.9025 7.74275 14 8.00021 14C8.03935 14 8.07842 13.9978 8.11722 13.9932C8.19532 14.1858 8.31246 14.3662 8.46863 14.5224L8.78601 14.8398C8.53563 14.9466 8.26789 15 8.00015 15C7.48833 15 6.97651 14.8047 6.58601 14.4142L1.58575 9.41367C1.19538 9.02328 1.00013 8.51166 1 8C0.999872 7.48796 1.19516 6.97588 1.58585 6.58522L6.58596 1.58572C6.97649 1.19523 7.48833 0.999989 8.00015 1C8.512 1.00001 9.02385 1.19529 9.41436 1.58582L14.5002 6.6716C14.8907 7.06207 15.0859 7.57381 15.086 8.08557C15.086 8.59749 14.8907 9.10942 14.5002 9.5L11.18 12.7082L10.7314 12.2596C10.6422 12.1705 10.5451 12.0941 10.4424 12.0303Z" fill="#A571E6"/>
</g>
</g>
<defs>
<clipPath id="clip0_9867_14376">
<rect width="16" height="16" fill="white"/>
</clipPath>
<clipPath id="clip1_9867_14376">
<rect width="16" height="16" fill="white"/>
</clipPath>
</defs>
</svg>
