<svg width="14" height="14" viewBox="0 0 14 14" fill="none" xmlns="http://www.w3.org/2000/svg">
<circle cx="7" cy="7" r="4.5" fill="#EDF3FF" stroke="#3574F0"/>
<path d="M7 0C7.27614 0 7.5 0.223858 7.5 0.5V2.02469C7.33555 2.00836 7.16875 2 7 2C6.83125 2 6.66445 2.00836 6.5 2.02469V0.5C6.5 0.223858 6.72386 0 7 0Z" fill="#3574F0"/>
<path d="M3.83514 3.12893L2.75695 2.05074C2.56169 1.85548 2.2451 1.85548 2.04984 2.05074C1.85458 2.24601 1.85458 2.56259 2.04984 2.75785L3.12812 3.83613C3.33967 3.57755 3.57661 3.34055 3.83514 3.12893Z" fill="#3574F0"/>
<path d="M2.02469 6.5H0.5C0.223858 6.5 0 6.72386 0 7C0 7.27614 0.223858 7.5 0.5 7.5H2.02469C2.00836 7.33555 2 7.16875 2 7C2 6.83125 2.00836 6.66445 2.02469 6.5Z" fill="#3574F0"/>
<path d="M3.129 10.1649L2.05074 11.2432C1.85548 11.4385 1.85548 11.7551 2.05074 11.9503C2.246 12.1456 2.56258 12.1456 2.75785 11.9503L3.83621 10.8719C3.57763 10.6604 3.34062 10.4235 3.129 10.1649Z" fill="#3574F0"/>
<path d="M6.5 11.9753V13.5C6.5 13.7761 6.72386 14 7 14C7.27614 14 7.5 13.7761 7.5 13.5V11.9753C7.33555 11.9916 7.16875 12 7 12C6.83125 12 6.66445 11.9916 6.5 11.9753Z" fill="#3574F0"/>
<path d="M10.1639 10.8719L11.2422 11.9502C11.4375 12.1455 11.7541 12.1455 11.9493 11.9502C12.1446 11.755 12.1446 11.4384 11.9493 11.2431L10.8711 10.1649C10.6595 10.4234 10.4225 10.6603 10.1639 10.8719Z" fill="#3574F0"/>
<path d="M11.9753 7.5H13.5C13.7761 7.5 14 7.27614 14 7C14 6.72386 13.7761 6.5 13.5 6.5H11.9753C11.9916 6.66445 12 6.83125 12 7C12 7.16875 11.9916 7.33555 11.9753 7.5Z" fill="#3574F0"/>
<path d="M10.8719 3.83621L11.9502 2.75793C12.1455 2.56266 12.1455 2.24608 11.9502 2.05082C11.755 1.85556 11.4384 1.85556 11.2431 2.05082L10.1649 3.129C10.4235 3.34062 10.6604 3.57763 10.8719 3.83621Z" fill="#3574F0"/>
<circle cx="7" cy="7" r="1" fill="#3574F0"/>
</svg>
