<svg width="16" height="16" viewBox="0 0 16 16" fill="none" xmlns="http://www.w3.org/2000/svg">
<path d="M15 8C15 4.13401 11.866 1 8 1C4.13401 1 1 4.13401 1 8C1 11.866 4.13401 15 8 15C8.33952 15 8.6734 14.9758 9 14.9291V10C9 8.89543 9.89543 8 11 8H15Z" fill="#25324D"/>
<path d="M9.93149 6.26376L11.1495 5.56076C10.4175 4.61776 9.28549 3.99976 7.99949 3.99976C6.72849 3.99976 5.60949 4.60476 4.87549 5.52976C4.87549 5.52976 7.38249 3.08776 9.93149 6.26376Z" fill="#548AF7"/>
<path d="M5.56749 7.08288L4.34849 6.37988C4.12849 6.87588 4.00049 7.42188 4.00049 7.99988C4.00049 10.0519 5.54949 11.7229 7.54049 11.9539C7.54049 11.9539 4.14749 11.3229 5.56749 7.08288Z" fill="#548AF7"/>
<path d="M12 12H14V11H12V12Z" fill="#CED0D6"/>
<path d="M12 14H14V13H12V14Z" fill="#CED0D6"/>
<path fill-rule="evenodd" clip-rule="evenodd" d="M11 9C10.4477 9 10 9.44772 10 10V15C10 15.5523 10.4477 16 11 16H15C15.5523 16 16 15.5523 16 15V10C16 9.44772 15.5523 9 15 9H11ZM15 10H11V15H15V10Z" fill="#CED0D6"/>
<path d="M9 13.917C8.67479 13.9716 8.34071 14 8 14C4.68629 14 2 11.3137 2 8C2 4.68629 4.68629 2 8 2C11.3137 2 14 4.68629 14 8H15C15 4.13401 11.866 1 8 1C4.13401 1 1 4.13401 1 8C1 11.866 4.13401 15 8 15C8.33952 15 8.6734 14.9758 9 14.9291V13.917Z" fill="#548AF7"/>
</svg>
