<svg width="16" height="16" viewBox="0 0 16 16" fill="none" xmlns="http://www.w3.org/2000/svg">
<path d="M14.8913 9.23582C14.9627 8.83467 15 8.42169 15 8C15 4.13401 11.866 1 8 1C4.13401 1 1 4.13401 1 8C1 11.866 4.13401 15 8 15C8.42169 15 8.83467 14.9627 9.23582 14.8913C8.4743 14.163 8 13.1369 8 12C8 9.79086 9.79086 8 12 8C13.1369 8 14.163 8.4743 14.8913 9.23582Z" fill="#EDF3FF"/>
<path d="M9.93149 6.26376L11.1495 5.56076C10.4175 4.61776 9.28549 3.99976 7.99949 3.99976C6.72849 3.99976 5.60949 4.60476 4.87549 5.52976C4.87549 5.52976 7.38249 3.08776 9.93149 6.26376Z" fill="#3574F0"/>
<path d="M5.56749 7.08288L4.34849 6.37988C4.12849 6.87588 4.00049 7.42188 4.00049 7.99988C4.00049 10.0519 5.54949 11.7229 7.54049 11.9539C7.54049 11.9539 4.14749 11.3229 5.56749 7.08288Z" fill="#3574F0"/>
<path d="M8.52226 13.9776C8.35015 13.9924 8.17596 14 8 14C4.68629 14 2 11.3137 2 8C2 4.68629 4.68629 2 8 2C11.3137 2 14 4.68629 14 8C14 8.17596 13.9924 8.35015 13.9776 8.52226C14.3161 8.71519 14.6238 8.95613 14.8913 9.23582C14.9627 8.83467 15 8.42169 15 8C15 4.13401 11.866 1 8 1C4.13401 1 1 4.13401 1 8C1 11.866 4.13401 15 8 15C8.42169 15 8.83467 14.9627 9.23582 14.8913C8.95613 14.6238 8.71519 14.3161 8.52226 13.9776Z" fill="#3574F0"/>
<circle cx="12" cy="12" r="2" fill="#EBECF0"/>
<path fill-rule="evenodd" clip-rule="evenodd" d="M13.7383 14.4454C13.2479 14.7946 12.6479 15 12 15C10.3431 15 9 13.6569 9 12C9 10.3431 10.3431 9 12 9C13.6569 9 15 10.3431 15 12C15 12.6479 14.7946 13.2479 14.4454 13.7383L15.8536 15.1464C16.0488 15.3417 16.0488 15.6583 15.8536 15.8536C15.6583 16.0488 15.3417 16.0488 15.1464 15.8536L13.7383 14.4454ZM14 12C14 13.1046 13.1046 14 12 14C10.8954 14 10 13.1046 10 12C10 10.8954 10.8954 10 12 10C13.1046 10 14 10.8954 14 12Z" fill="#6C707E"/>
</svg>
