<svg width="16" height="16" viewBox="0 0 16 16" fill="none" xmlns="http://www.w3.org/2000/svg">
<path fill-rule="evenodd" clip-rule="evenodd" d="M11 10.5C11 10.2239 11.2239 10 11.5 10H15.5C15.7761 10 16 10.2239 16 10.5V14.5C16 14.7761 15.7761 15 15.5 15C15.2239 15 15 14.7761 15 14.5V11.7071L10.8536 15.8536C10.6583 16.0488 10.3417 16.0488 10.1464 15.8536C9.95118 15.6583 9.95118 15.3417 10.1464 15.1464L14.2929 11H11.5C11.2239 11 11 10.7761 11 10.5Z" fill="#3574F0"/>
<path d="M6 8C6.55228 8 7 8.44772 7 9V13C7 13.5523 6.55228 14 6 14H2C1.44772 14 1 13.5523 1 13V9C1 8.44772 1.44772 8 2 8H6Z" fill="#EBECF0"/>
<path d="M10 10.5C10 11.3284 10.6716 11.9999 11.5 12H11.8789L9.87891 14H9C8.44772 14 8 13.5523 8 13V9C8 8.44772 8.44772 8 9 8H10V10.5Z" fill="#EBECF0"/>
<path d="M6 1C6.55228 1 7 1.44772 7 2V6C7 6.55228 6.55228 7 6 7H2C1.44772 7 1 6.55228 1 6V2C1 1.44772 1.44772 1 2 1H6Z" fill="#EBECF0"/>
<path d="M13 1C13.5523 1 14 1.44772 14 2V6C14 6.55228 13.5523 7 13 7H9C8.44772 7 8 6.55228 8 6V2C8 1.44772 8.44772 1 9 1H13Z" fill="#EBECF0"/>
<path fill-rule="evenodd" clip-rule="evenodd" d="M6.10254 8.00488C6.60667 8.05621 7 8.48232 7 9V13L6.99512 13.1025C6.94722 13.573 6.57297 13.9472 6.10254 13.9951L6 14H2C1.48232 14 1.05621 13.6067 1.00488 13.1025L1 13V9C1 8.44772 1.44772 8 2 8H6L6.10254 8.00488ZM2 13H6V9H2V13Z" fill="#6C707E"/>
<path d="M10 9H9V13H10.8789L9.87891 14H9C8.48232 14 8.05621 13.6067 8.00488 13.1025L8 13V9C8 8.44772 8.44772 8 9 8H10V9Z" fill="#6C707E"/>
<path fill-rule="evenodd" clip-rule="evenodd" d="M6.10254 1.00488C6.60667 1.05621 7 1.48232 7 2V6L6.99512 6.10254C6.94722 6.57297 6.57297 6.94722 6.10254 6.99512L6 7H2C1.48232 7 1.05621 6.60667 1.00488 6.10254L1 6V2C1 1.44772 1.44772 1 2 1H6L6.10254 1.00488ZM2 6H6V2H2V6Z" fill="#6C707E"/>
<path fill-rule="evenodd" clip-rule="evenodd" d="M13.1025 1.00488C13.6067 1.05621 14 1.48232 14 2V6L13.9951 6.10254C13.9472 6.57297 13.573 6.94722 13.1025 6.99512L13 7H9C8.48232 7 8.05621 6.60667 8.00488 6.10254L8 6V2C8 1.44772 8.44772 1 9 1H13L13.1025 1.00488ZM9 6H13V2H9V6Z" fill="#6C707E"/>
</svg>
