<svg width="16" height="16" viewBox="0 0 16 16" fill="none" xmlns="http://www.w3.org/2000/svg">
<path d="M6 10C6 9.44772 6.44772 9 7 9L12.5 9C13.0523 9 13.5 9.44772 13.5 10V12.25C13.5 14.3211 11.8211 16 9.75 16C7.67893 16 6 14.3211 6 12.25V10Z" fill="#25324D"/>
<path fill-rule="evenodd" clip-rule="evenodd" d="M13.425 13C13.0775 14.7117 11.5642 16 9.75 16C7.67893 16 6 14.3211 6 12.25V10C6 9.44772 6.44772 9 7 9H14C15.1046 9 16 9.89543 16 11C16 12.1046 15.1046 13 14 13H13.425ZM7 10H12.5V12.25C12.5 13.7688 11.2688 15 9.75 15C8.23122 15 7 13.7688 7 12.25V10ZM13.5 12H14C14.5523 12 15 11.5523 15 11C15 10.4477 14.5523 10 14 10H13.5V12Z" fill="#548AF7"/>
<path d="M8.00383 1C8.35723 1 8.70454 1.02661 9.04387 1.07715C9.26744 1.11045 9.45824 1.25137 9.56926 1.44824L10.4384 2.99121C10.5776 3.23857 10.8401 3.39067 11.1239 3.3877L12.8935 3.36816C13.1192 3.36569 13.3366 3.46033 13.4775 3.63672C13.9092 4.17767 14.2629 4.78394 14.5204 5.43848C14.6031 5.64871 14.5759 5.8847 14.4609 6.0791L13.5585 7.60352C13.4862 7.72569 13.4501 7.86297 13.4501 8H12.4501C12.4501 7.68686 12.5329 7.37393 12.6982 7.09473L13.538 5.67578C13.341 5.20744 13.0853 4.7687 12.7812 4.36914L11.1357 4.3877C10.4867 4.3948 9.88473 4.0479 9.56633 3.48242L8.75871 2.04688C8.51186 2.01594 8.25989 2 8.00383 2C7.74774 2 7.49582 2.01593 7.24895 2.04688L6.44133 3.48242C6.12292 4.04789 5.52092 4.3948 4.87199 4.3877L3.22649 4.36914C2.92238 4.76862 2.66758 5.20754 2.47063 5.67578L3.30949 7.09473C3.64001 7.65315 3.64001 8.34685 3.30949 8.90527L2.47063 10.3242C2.66758 10.7925 2.92238 11.2314 3.22649 11.6309L4.87199 11.6123C4.91471 11.6118 4.95768 11.6127 4.99992 11.6152V12.6201C4.96175 12.6148 4.92295 12.6119 4.88371 12.6123L3.11418 12.6318C2.88843 12.6343 2.67105 12.5397 2.5302 12.3633C2.09832 11.8222 1.74474 11.2153 1.48723 10.5605C1.40476 10.3505 1.43188 10.1151 1.5468 9.9209L2.44914 8.39648C2.59381 8.15213 2.59381 7.84787 2.44914 7.60352L1.5468 6.0791C1.43188 5.88485 1.40476 5.64952 1.48723 5.43945C1.74474 4.78472 2.09832 4.17781 2.5302 3.63672C2.67105 3.46029 2.88843 3.3657 3.11418 3.36816L4.88371 3.3877C5.16754 3.39069 5.43003 3.23858 5.56926 2.99121L6.4384 1.44922C6.54937 1.25206 6.74002 1.11048 6.96379 1.07715C7.30315 1.02659 7.6504 1 8.00383 1Z" fill="#CED0D6"/>
<path d="M8.00383 5.34863C9.46793 5.34863 10.6552 6.5359 10.6552 8H9.6552C9.65519 7.08819 8.91564 6.34863 8.00383 6.34863C7.09201 6.34863 6.35247 7.08819 6.35246 8C6.35246 8.03578 6.3551 8.07123 6.35734 8.10645C6.00161 8.22711 5.69006 8.44386 5.45598 8.72754C5.39005 8.4962 5.35246 8.25249 5.35246 8C5.35247 6.5359 6.53973 5.34863 8.00383 5.34863Z" fill="#CED0D6"/>
</svg>
