<svg width="16" height="16" viewBox="0 0 16 16" fill="none" xmlns="http://www.w3.org/2000/svg">
<circle cx="12.5" cy="12.5" r="3.5" fill="#DB5C5C"/>
<path d="M12.5 10C12.2239 10 12 10.2239 12 10.5V12.5C12 12.7761 12.2239 13 12.5 13C12.7761 13 13 12.7761 13 12.5V10.5C13 10.2239 12.7761 10 12.5 10Z" fill="white"/>
<path d="M12.5 15C12.7761 15 13 14.7761 13 14.5C13 14.2239 12.7761 14 12.5 14C12.2239 14 12 14.2239 12 14.5C12 14.7761 12.2239 15 12.5 15Z" fill="white"/>
<path d="M11 8.25606C9.40297 8.82053 8.21971 10.2609 8.02746 12H7C5.34315 12 4 10.6569 4 9V7C4 5.34315 5.34315 4 7 4H11V8.25606Z" fill="#402929"/>
<path d="M3 9V7H1V9H3Z" fill="#402929"/>
<path fill-rule="evenodd" clip-rule="evenodd" d="M12 4V5H15.5C15.7761 5 16 5.22386 16 5.5C16 5.77614 15.7761 6 15.5 6H12V8.02746C11.6533 8.06579 11.3184 8.14352 11 8.25606V4H7C5.34315 4 4 5.34315 4 7V9C4 10.6569 5.34315 12 7 12H8.02746C8.00932 12.1642 8 12.331 8 12.5C8 12.669 8.00932 12.8358 8.02746 13H7C5.13616 13 3.57006 11.7252 3.12602 10H1C0.447715 10 0 9.55228 0 9V7C0 6.44772 0.447715 6 1 6H3.12602C3.57006 4.27477 5.13616 3 7 3H11C11.5523 3 12 3.44772 12 4ZM3 9V7L1 7V9H3Z" fill="#DB5C5C"/>
</svg>
