<svg width="16" height="16" viewBox="0 0 16 16" fill="none" xmlns="http://www.w3.org/2000/svg">
<path fill-rule="evenodd" clip-rule="evenodd" d="M15.827 11.1757C16.0613 11.4101 16.0613 11.7899 15.827 12.0243L12.0301 15.8211C11.7958 16.0555 11.4159 16.0555 11.1816 15.8211L9.17574 13.8153C8.94142 13.581 8.94142 13.2011 9.17574 12.9668C9.41005 12.7324 9.78995 12.7324 10.0243 12.9668L11.6059 14.5483L14.9785 11.1757C15.2128 10.9414 15.5927 10.9414 15.827 11.1757Z" fill="#6C707E"/>
<path fill-rule="evenodd" clip-rule="evenodd" d="M12 5V4C12 3.44772 11.5523 3 11 3H7C5.13616 3 3.57006 4.27477 3.12602 6H1C0.447715 6 0 6.44772 0 7V9C0 9.55228 0.447715 10 1 10H3.12602C3.57006 11.7252 5.13616 13 7 13H8.04803C8.11603 12.7284 8.25623 12.4711 8.46863 12.2587C8.57196 12.1554 8.68591 12.0692 8.80696 12H7C5.34315 12 4 10.6569 4 9V7C4 5.34315 5.34315 4 7 4H11V12H10.393C10.5141 12.0692 10.628 12.1554 10.7314 12.2587L11.3926 12.92C11.7497 12.7674 12 12.4129 12 12V11H13.7395L14.7397 10H12V6H15.5C15.7761 6 16 5.77614 16 5.5C16 5.22386 15.7761 5 15.5 5H12ZM3 7V9H1V7L3 7Z" fill="#208A3C"/>
<path d="M8.80857 12H7C5.34315 12 4 10.6569 4 9V7C4 5.34315 5.34315 4 7 4H11V12H10.3914C9.90235 11.7214 9.29765 11.7214 8.80857 12Z" fill="#F2FCF3"/>
<path d="M3 7V9H1V7H3Z" fill="#F2FCF3"/>
</svg>
