<svg width="16" height="16" viewBox="0 0 16 16" fill="none" xmlns="http://www.w3.org/2000/svg">
<mask id="path-1-inside-1_9859_15008" fill="white">
<path fill-rule="evenodd" clip-rule="evenodd" d="M6.50379 6.54063C6.81106 6.36143 7 6.0325 7 5.67681V3.32571C7 2.97026 6.81132 2.64152 6.50439 2.46223L4.50562 1.29467C4.19441 1.11287 3.80944 1.11262 3.49799 1.294L1.49676 2.45943C1.18919 2.63855 1 2.96765 1 3.32357V5.67525C1 6.03071 1.18868 6.35944 1.49561 6.53873L3.49452 7.70637C3.80566 7.88813 4.19052 7.88843 4.50194 7.70717L5.327 7.22695L6.50379 6.54063Z"/>
</mask>
<path fill-rule="evenodd" clip-rule="evenodd" d="M6.50379 6.54063C6.81106 6.36143 7 6.0325 7 5.67681V3.32571C7 2.97026 6.81132 2.64152 6.50439 2.46223L4.50562 1.29467C4.19441 1.11287 3.80944 1.11262 3.49799 1.294L1.49676 2.45943C1.18919 2.63855 1 2.96765 1 3.32357V5.67525C1 6.03071 1.18868 6.35944 1.49561 6.53873L3.49452 7.70637C3.80566 7.88813 4.19052 7.88843 4.50194 7.70717L5.327 7.22695L6.50379 6.54063Z" fill="#3D3223"/>
<path d="M5.327 7.22695L5.83004 8.09122L5.83079 8.09077L5.327 7.22695ZM3.49452 7.70637L2.99012 8.56985L3.49452 7.70637ZM4.50194 7.70717L3.99891 6.8429L4.50194 7.70717ZM1.49561 6.53873L0.991216 7.4022L1.49561 6.53873ZM6.50439 2.46223L6 3.32571L6.50439 2.46223ZM6.50379 6.54063L7.00759 7.40445L6.50379 6.54063ZM8 5.67681V3.32571H6V5.67681H8ZM7.00878 1.59876L5.01001 0.431192L4.00123 2.15814L6 3.32571L7.00878 1.59876ZM2.99475 0.429851L0.993515 1.59528L2 3.32357L4.00123 2.15814L2.99475 0.429851ZM0 3.32357V5.67525H2V3.32357H0ZM0.991216 7.4022L2.99012 8.56985L3.99891 6.8429L2 5.67525L0.991216 7.4022ZM5.00498 8.57143L5.83004 8.09122L4.82396 6.36269L3.99891 6.8429L5.00498 8.57143ZM5.83079 8.09077L7.00759 7.40445L6 5.67681L4.82321 6.36313L5.83079 8.09077ZM2.99012 8.56985C3.61241 8.93335 4.38213 8.93395 5.00498 8.57143L3.99891 6.8429L3.99891 6.8429L2.99012 8.56985ZM0 5.67525C0 6.38616 0.377369 7.04363 0.991216 7.4022L2 5.67525H0ZM0.993515 1.59528C0.37837 1.95352 0 2.61172 0 3.32357H2H2L0.993515 1.59528ZM5.01001 0.431192C4.38759 0.067606 3.61766 0.0670929 2.99475 0.429851L4.00123 2.15814L4.00123 2.15814L5.01001 0.431192ZM8 3.32571C8 2.6148 7.62263 1.95733 7.00878 1.59876L6 3.32571H8ZM6 5.67681L7.00759 7.40445C7.62211 7.04606 8 6.3882 8 5.67681H6Z" fill="#D6AE58" mask="url(#path-1-inside-1_9859_15008)"/>
<mask id="path-3-inside-2_9859_15008" fill="white">
<path fill-rule="evenodd" clip-rule="evenodd" d="M5.49681 9.4592C5.18921 9.63831 5 9.96743 5 10.3234V12.6746C5 13.03 5.18861 13.3587 5.49545 13.538L7.49417 14.7061C7.80549 14.888 8.19065 14.8882 8.5022 14.7067L9.327 14.2261L10.5037 13.5399C10.811 13.3607 11 13.0317 11 12.676V10.3255C11 9.97004 10.8113 9.64128 10.5043 9.462L8.50557 8.2946C8.19438 8.11285 7.80947 8.1126 7.49804 8.29393L5.49681 9.4592Z"/>
</mask>
<path fill-rule="evenodd" clip-rule="evenodd" d="M5.49681 9.4592C5.18921 9.63831 5 9.96743 5 10.3234V12.6746C5 13.03 5.18861 13.3587 5.49545 13.538L7.49417 14.7061C7.80549 14.888 8.19065 14.8882 8.5022 14.7067L9.327 14.2261L10.5037 13.5399C10.811 13.3607 11 13.0317 11 12.676V10.3255C11 9.97004 10.8113 9.64128 10.5043 9.462L8.50557 8.2946C8.19438 8.11285 7.80947 8.1126 7.49804 8.29393L5.49681 9.4592Z" fill="#3D3223"/>
<path d="M9.327 14.2261L9.83047 15.0901L9.83074 15.0899L9.327 14.2261ZM7.49417 14.7061L6.98962 15.5694L7.49417 14.7061ZM8.5022 14.7067L7.99873 13.8427L8.5022 14.7067ZM5.49545 13.538L4.99089 14.4014L5.49545 13.538ZM4 10.3234V12.6746H6V10.3234H4ZM4.99089 14.4014L6.98962 15.5694L7.99873 13.8427L6 12.6746L4.99089 14.4014ZM9.00567 15.5707L9.83047 15.0901L8.82353 13.3621L7.99873 13.8427L9.00567 15.5707ZM9.83074 15.0899L11.0075 14.4037L10 12.676L8.82326 13.3622L9.83074 15.0899ZM12 12.676V10.3255H10V12.676H12ZM11.0087 8.5985L9.0099 7.4311L8.00123 9.15811L10 10.3255L11.0087 8.5985ZM6.99485 7.42976L4.99362 8.59502L6 10.3234L8.00123 9.15811L6.99485 7.42976ZM9.0099 7.4311C8.38753 7.0676 7.61771 7.06708 6.99485 7.42976L8.00123 9.15811L8.00123 9.15811L9.0099 7.4311ZM11.0075 14.4037C11.6221 14.0454 12 13.3875 12 12.676H10H10L11.0075 14.4037ZM6.98962 15.5694C7.61226 15.9333 8.38257 15.9338 9.00567 15.5707L7.99873 13.8427L7.99873 13.8427L6.98962 15.5694ZM4 12.6746C4 13.3854 4.37723 14.0428 4.99089 14.4014L6 12.6746V12.6746H4ZM12 10.3255C12 9.61456 11.6226 8.95705 11.0087 8.5985L10 10.3255V10.3255H12ZM6 10.3234L6 10.3234L4.99362 8.59502C4.37842 8.95324 4 9.61148 4 10.3234H6Z" fill="#D6AE58" mask="url(#path-3-inside-2_9859_15008)"/>
<mask id="path-5-inside-3_9859_15008" fill="white">
<path fill-rule="evenodd" clip-rule="evenodd" d="M12.5056 1.2946C12.1944 1.11285 11.8095 1.1126 11.498 1.29393L9.49681 2.4592C9.18921 2.63831 9 2.96743 9 3.32338V5.67464C9 6.03002 9.18861 6.35871 9.49545 6.53802L11.4942 7.70606C11.8055 7.88799 12.1906 7.88823 12.5022 7.70669L13.327 7.22607L14.5037 6.53988C14.811 6.36069 15 6.03174 15 5.67602V3.32551C15 2.97004 14.8113 2.64128 14.5043 2.462L12.5056 1.2946Z"/>
</mask>
<path fill-rule="evenodd" clip-rule="evenodd" d="M12.5056 1.2946C12.1944 1.11285 11.8095 1.1126 11.498 1.29393L9.49681 2.4592C9.18921 2.63831 9 2.96743 9 3.32338V5.67464C9 6.03002 9.18861 6.35871 9.49545 6.53802L11.4942 7.70606C11.8055 7.88799 12.1906 7.88823 12.5022 7.70669L13.327 7.22607L14.5037 6.53988C14.811 6.36069 15 6.03174 15 5.67602V3.32551C15 2.97004 14.8113 2.64128 14.5043 2.462L12.5056 1.2946Z" fill="#3D3223"/>
<path d="M13.327 7.22607L13.8305 8.09008L13.8307 8.08992L13.327 7.22607ZM11.4942 7.70606L10.9896 8.56944L11.4942 7.70606ZM12.5022 7.70669L11.9987 6.84268L12.5022 7.70669ZM9.49545 6.53802L8.99089 7.4014L9.49545 6.53802ZM10.9949 0.429758L8.99362 1.59502L10 3.32338L12.0012 2.15811L10.9949 0.429758ZM8 3.32338V5.67464H10V3.32338H8ZM8.99089 7.4014L10.9896 8.56944L11.9987 6.84268L10 5.67464L8.99089 7.4014ZM13.0057 8.5707L13.8305 8.09008L12.8235 6.36205L11.9987 6.84268L13.0057 8.5707ZM13.8307 8.08992L15.0075 7.40373L14 5.67602L12.8233 6.36221L13.8307 8.08992ZM16 5.67602V3.32551H14V5.67602H16ZM15.0087 1.5985L13.0099 0.431099L12.0012 2.15811L14 3.32551L15.0087 1.5985ZM16 3.32551C16 2.61456 15.6226 1.95705 15.0087 1.5985L14 3.32551V3.32551H16ZM10.9896 8.56944C11.6123 8.93331 12.3826 8.93379 13.0057 8.5707L11.9987 6.84268L11.9987 6.84268L10.9896 8.56944ZM8 5.67464C8 6.38541 8.37723 7.04278 8.99089 7.4014L10 5.67464V5.67464H8ZM8.99362 1.59502C8.37842 1.95324 8 2.61148 8 3.32338H10L10 3.32338L8.99362 1.59502ZM15.0075 7.40373C15.6221 7.04535 16 6.38746 16 5.67602H14H14L15.0075 7.40373ZM12.0012 2.15811L12.0012 2.15811L13.0099 0.431099C12.3875 0.0675956 11.6177 0.0670843 10.9949 0.429758L12.0012 2.15811Z" fill="#D6AE58" mask="url(#path-5-inside-3_9859_15008)"/>
</svg>
