<svg width="16" height="16" viewBox="0 0 16 16" fill="none" xmlns="http://www.w3.org/2000/svg">
<path d="M1 3.86667C1 2.83574 1.73127 2 2.63333 2H6.1217C6.39413 2 6.65477 2.11115 6.84336 2.30775L8 3.51351V10.0853C7.4174 10.2913 7 10.8469 7 11.5C7 11.5 7 11.5 7 11.5V14H2.63333C1.73127 14 1 13.1643 1 12.1333V3.86667Z" fill="#EDF3FF"/>
<path d="M8 4.95807L6.1217 3L2.63333 3C2.40481 3 2 3.25841 2 3.86667V12.1333C2 12.7416 2.40481 13 2.63333 13H7V14H2.63333C1.73127 14 1 13.1643 1 12.1333V3.86667C1 2.83574 1.73127 2 2.63333 2H6.1217C6.39413 2 6.65477 2.11115 6.84336 2.30775L8 3.51351V4.95807Z" fill="#3574F0"/>
<path d="M8 10.0856C8.15639 10.0303 8.32468 10.0002 8.5 10.0002H11.8787L11.4393 9.5609C10.8536 8.97512 10.8536 8.02537 11.4393 7.43958C12.0251 6.8538 12.9749 6.8538 13.5607 7.43958L15 8.87892V6.00016C15 4.89559 14.1046 4.00016 13 4.00016H8.46667L8 3.51367V10.0856Z" fill="#FFFAEB"/>
<path d="M15 8.87892V6.00016C15 4.89559 14.1046 4.00016 13 4.00016H8.46667L8 3.51367V4.95823L8.04022 5.00016H13C13.5523 5.00016 14 5.44787 14 6.00016V7.87892L15 8.87892Z" fill="#C27D04"/>
<path fill-rule="evenodd" clip-rule="evenodd" d="M12.1464 8.14645C12.3417 7.95118 12.6583 7.95118 12.8536 8.14645L15.8536 11.1464C16.0488 11.3417 16.0488 11.6583 15.8536 11.8536L12.8536 14.8536C12.6583 15.0488 12.3417 15.0488 12.1464 14.8536C11.9512 14.6583 11.9512 14.3417 12.1464 14.1464L14.2929 12H8.5C8.22386 12 8 11.7761 8 11.5C8 11.2238 8.22386 11 8.5 11H14.2929L12.1464 8.85355C11.9512 8.65829 11.9512 8.34171 12.1464 8.14645Z" fill="#6C707E"/>
</svg>
