<svg width="16" height="16" viewBox="0 0 16 16" fill="none" xmlns="http://www.w3.org/2000/svg">
<rect x="2.5" y="2.5" width="11" height="11" rx="1.5" fill="#EDF3FF" stroke="#3574F0"/>
<path d="M5.5 4.5L8.105 4.5C8.77167 4.5 9.36167 4.64834 9.875 4.945C10.3883 5.23834 10.7867 5.65 11.07 6.18C11.3567 6.71 11.5 7.31667 11.5 8C11.5 8.68334 11.3567 9.29 11.07 9.82C10.7867 10.35 10.3883 10.7633 9.875 11.06C9.36167 11.3533 8.77167 11.5 8.105 11.5L5.5 11.5V4.5ZM8.1 10.5C8.55 10.5 8.94833 10.4217 9.295 10.215C9.64167 10.005 9.91 9.71 10.1 9.33C10.29 8.95 10.385 8.50667 10.385 8C10.385 7.49334 10.29 7.05 10.1 6.67C9.91 6.29 9.64167 5.99667 9.295 5.79C8.94833 5.58 8.55 5.5 8.1 5.5L6.5 5.5V10.5L8.1 10.5Z" fill="#3574F0"/>
</svg>
