<svg width="16" height="16" viewBox="0 0 16 16" fill="none" xmlns="http://www.w3.org/2000/svg">
<path fill-rule="evenodd" clip-rule="evenodd" d="M10.5854 0.735113C10.8418 0.83767 10.9665 1.12866 10.864 1.38505L10.1472 3.17703C10.3495 3.56941 10.4688 4.051 10.4688 4.62601C10.4688 5.40208 10.299 6.03164 9.79339 6.42788C9.32237 6.79703 8.67351 6.86328 8.00884 6.86328C7.34416 6.86328 6.6953 6.79703 6.22429 6.42788C5.7187 6.03164 5.54884 5.40208 5.54884 4.62601C5.54884 4.06044 5.66433 3.58525 5.86058 3.19643L5.13603 1.38505C5.03347 1.12866 5.15818 0.83767 5.41457 0.735113C5.67096 0.632557 5.96195 0.757265 6.0645 1.01366L6.59156 2.33129C7.04698 1.99903 7.57124 1.86328 8.00884 1.86328C8.44206 1.86328 8.96021 1.99633 9.41242 2.32138L9.93551 1.01366C10.0381 0.757265 10.3291 0.632557 10.5854 0.735113ZM6.54884 4.62601C6.54884 3.90335 6.79387 3.47823 7.0697 3.22948C7.35913 2.96845 7.72531 2.86328 8.00884 2.86328C8.29236 2.86328 8.65854 2.96845 8.94797 3.22948C9.2238 3.47823 9.46884 3.90335 9.46884 4.62601C9.46884 5.28914 9.3202 5.52821 9.17653 5.64081C8.9983 5.78049 8.66716 5.86328 8.00884 5.86328C7.35051 5.86328 7.01937 5.78049 6.84114 5.64081C6.69747 5.52821 6.54884 5.28914 6.54884 4.62601Z" fill="#CED0D6"/>
<path fill-rule="evenodd" clip-rule="evenodd" d="M5.10319 10.6279L4.09766 11.0521V14.4004C4.09766 14.6765 3.8738 14.9004 3.59766 14.9004C3.32151 14.9004 3.09766 14.6765 3.09766 14.4004V10.7204C3.09766 10.5193 3.21807 10.3379 3.4033 10.2597L5.25986 9.47642C5.34894 9.21401 5.47267 8.9708 5.62475 8.75118L3.32261 7.21642C3.18351 7.12368 3.09996 6.96757 3.09996 6.80039V4.40039C3.09996 4.12425 3.32381 3.90039 3.59996 3.90039C3.8761 3.90039 4.09996 4.12425 4.09996 4.40039V6.5328L6.27731 7.98436C6.2988 7.99869 6.31882 8.01439 6.33734 8.03128C6.81434 7.6937 7.39154 7.50073 7.99962 7.50073C8.60788 7.50073 9.18525 7.69382 9.66234 8.03159C9.68095 8.01459 9.70109 7.99878 9.72271 7.98436L11.9001 6.5328V4.40039C11.9001 4.12425 12.1239 3.90039 12.4001 3.90039C12.6762 3.90039 12.9001 4.12425 12.9001 4.40039V6.80039C12.9001 6.96757 12.8165 7.12368 12.6774 7.21642L10.3747 8.75153C10.5268 8.97122 10.6505 9.21451 10.7396 9.477L12.5948 10.2597C12.78 10.3379 12.9004 10.5193 12.9004 10.7204V14.4004C12.9004 14.6765 12.6766 14.9004 12.4004 14.9004C12.1243 14.9004 11.9004 14.6765 11.9004 14.4004V11.0521L10.896 10.6284C10.8661 11.3409 10.6496 12.3099 10.2494 13.1338C9.83204 13.9928 9.10638 14.9007 7.99962 14.9007C6.89286 14.9007 6.1672 13.9928 5.74988 13.1338C5.34953 12.3097 5.13302 11.3405 5.10319 10.6279ZM6.09962 10.4623C6.09962 9.31454 6.99441 8.50073 7.99962 8.50073C9.00483 8.50073 9.89962 9.31454 9.89962 10.4623C9.89962 11.0299 9.71757 11.94 9.34988 12.6968C8.9672 13.4845 8.49286 13.9007 7.99962 13.9007C7.50638 13.9007 7.03204 13.4845 6.64935 12.6968C6.28167 11.94 6.09962 11.0299 6.09962 10.4623Z" fill="#CED0D6"/>
</svg>
