<svg width="16" height="16" viewBox="0 0 16 16" fill="none" xmlns="http://www.w3.org/2000/svg">
<path d="M10.8753 15.5504C11.3813 15.8501 11.9502 16 12.5818 16C13.1845 16 13.7259 15.8663 14.2061 15.5988C14.6895 15.328 15.0666 14.9558 15.3373 14.482C15.6113 14.0051 15.7482 13.4701 15.7482 12.8771V12.3356H12.9686V13.2977H14.5775C14.5524 13.596 14.4608 13.8651 14.3028 14.105C14.1288 14.3693 13.8919 14.5755 13.5922 14.7238C13.2957 14.8688 12.9637 14.9413 12.5963 14.9413C12.187 14.9413 11.8196 14.8381 11.4941 14.6319C11.1686 14.4224 10.914 14.134 10.7303 13.7666C10.5498 13.396 10.4596 12.9738 10.4596 12.5C10.4596 12.0262 10.5498 11.6057 10.7303 11.2383C10.914 10.8676 11.167 10.5792 11.4893 10.3729C11.8148 10.1635 12.1806 10.0587 12.5867 10.0587C12.9089 10.0587 13.2087 10.1215 13.4858 10.2472C13.7662 10.3729 13.9983 10.5421 14.182 10.7548C14.3689 10.9675 14.4897 11.2044 14.5445 11.4655H15.7095C15.6548 11.0078 15.4823 10.5921 15.1923 10.2182C14.9022 9.84116 14.5284 9.54467 14.0708 9.32873C13.6131 9.10958 13.1168 9 12.5818 9C11.9502 9 11.3813 9.15148 10.8753 9.45442C10.3694 9.75414 9.97294 10.1715 9.68611 10.7065C9.39927 11.2383 9.25586 11.8361 9.25586 12.5C9.25586 13.1639 9.39927 13.7634 9.68611 14.2983C9.97294 14.8301 10.3694 15.2475 10.8753 15.5504Z" fill="#CED0D6"/>
<path d="M3 5.41421V13C3 14.1046 3.89543 15 5 15H8.93692C8.89136 14.9261 8.84771 14.8504 8.80598 14.7731L8.80479 14.7709C8.4329 14.0772 8.25586 13.313 8.25586 12.5C8.25586 11.6875 8.43269 10.9243 8.80538 10.2329C9.17509 9.54376 9.69683 8.99073 10.3637 8.59524C11.0354 8.19355 11.7834 8 12.5818 8C12.7226 8 12.862 8.00605 13 8.01823V3C13 1.89543 12.1046 1 11 1H7.41421C7.149 1 6.89464 1.10536 6.70711 1.29289L3.29289 4.70711C3.10536 4.89464 3 5.149 3 5.41421Z" fill="#43454A"/>
<path fill-rule="evenodd" clip-rule="evenodd" d="M3 13V5.41421C3 5.149 3.10536 4.89464 3.29289 4.70711L6.70711 1.29289C6.89464 1.10536 7.149 1 7.41421 1H11C12.1046 1 13 1.89543 13 3V8.01823C12.862 8.00605 12.7226 8 12.5818 8C12.3847 8 12.1906 8.0118 12 8.03562V3C12 2.44772 11.5523 2 11 2L8 2V4C8 5.10457 7.10457 6 6 6H4L4 13C4 13.5523 4.44772 14 5 14H8.47956C8.56355 14.2653 8.67169 14.5226 8.80479 14.7709L8.80598 14.7731C8.84771 14.8504 8.89136 14.9261 8.93692 15H5C3.89543 15 3 14.1046 3 13ZM4.41421 5L7 2.41421V4C7 4.55228 6.55228 5 6 5H4.41421Z" fill="#CED0D6"/>
</svg>
