<svg width="16" height="16" viewBox="0 0 16 16" fill="none" xmlns="http://www.w3.org/2000/svg">
<path fill-rule="evenodd" clip-rule="evenodd" d="M12 13.0004V11.0004H13.537C14.303 11.0004 15 11.313 15 11.954C15 12.595 14.285 13.0004 13.547 13.0004H12ZM14.36 13.828C15.175 13.59 16 13.1099 16 11.913C16 10.7161 14.9489 10 13.622 10H11V16H12V14.0004H13.328L14.773 16H16L14.36 13.828Z" fill="#3574F0"/>
<path d="M3 5.41421V13C3 14.1046 3.89543 15 5 15H10V9H13V3C13 1.89543 12.1046 1 11 1H7.41421C7.149 1 6.89464 1.10536 6.70711 1.29289L3.29289 4.70711C3.10536 4.89464 3 5.149 3 5.41421Z" fill="#EBECF0"/>
<path fill-rule="evenodd" clip-rule="evenodd" d="M3 13V5.41421C3 5.149 3.10536 4.89464 3.29289 4.70711L6.70711 1.29289C6.89464 1.10536 7.149 1 7.41421 1H11C12.1046 1 13 1.89543 13 3V9H12V3C12 2.44772 11.5523 2 11 2L8 2V4C8 5.10457 7.10457 6 6 6H4L4 13C4 13.5523 4.44772 14 5 14H10V15H5C3.89543 15 3 14.1046 3 13ZM4.41421 5L7 2.41421V4C7 4.55228 6.55228 5 6 5H4.41421Z" fill="#6C707E"/>
</svg>
